<svg width="661" height="95" viewBox="0 0 661 95" fill="none" xmlns="http://www.w3.org/2000/svg">
<path d="M168.431 65.1C168.431 68.1667 167.965 70.9667 167.031 73.5C166.165 75.9667 164.565 78.1 162.231 79.9C159.965 81.6333 156.798 83 152.731 84C148.731 85 143.631 85.5 137.431 85.5C131.231 85.5 126.098 85 122.031 84C117.965 83 114.765 81.6333 112.431 79.9C110.165 78.1 108.565 75.9667 107.631 73.5C106.765 70.9667 106.331 68.1667 106.331 65.1V31C106.331 27.9333 106.765 25.1667 107.631 22.7C108.565 20.1667 110.165 18 112.431 16.2C114.765 14.4 117.965 13 122.031 12C126.098 11 131.231 10.5 137.431 10.5C143.631 10.5 148.731 11 152.731 12C156.798 13 159.965 14.4 162.231 16.2C164.565 18 166.165 20.1667 167.031 22.7C167.965 25.1667 168.431 27.9333 168.431 31V65.1ZM129.031 61.5C129.031 62.8333 129.531 63.9667 130.531 64.9C131.531 65.7667 133.831 66.2 137.431 66.2C141.031 66.2 143.331 65.7667 144.331 64.9C145.331 63.9667 145.831 62.8333 145.831 61.5V34.6C145.831 33.3333 145.331 32.2667 144.331 31.4C143.331 30.4667 141.031 30 137.431 30C133.831 30 131.531 30.4667 130.531 31.4C129.531 32.2667 129.031 33.3333 129.031 34.6V61.5ZM204.662 84H189.762C188.495 84 187.562 83.7333 186.962 83.2C186.428 82.6 186.162 81.6667 186.162 80.4V15.6C186.162 14.3333 186.428 13.4333 186.962 12.9C187.562 12.3 188.495 12 189.762 12H205.862C206.928 12 207.795 12.2333 208.462 12.7C209.195 13.1667 209.862 13.9333 210.462 15L219.462 31.3C219.795 31.9 220.062 32.3333 220.262 32.6C220.528 32.8667 220.862 33 221.262 33H222.162C222.562 33 222.862 32.8667 223.062 32.6C223.328 32.3333 223.628 31.9 223.962 31.3L232.862 15C233.462 13.9333 234.095 13.1667 234.762 12.7C235.495 12.2333 236.395 12 237.462 12H253.662C254.928 12 255.828 12.3 256.362 12.9C256.962 13.4333 257.262 14.3333 257.262 15.6V80.4C257.262 81.6667 256.962 82.6 256.362 83.2C255.828 83.7333 254.928 84 253.662 84H238.262C236.995 84 236.062 83.7333 235.462 83.2C234.928 82.6 234.662 81.6667 234.662 80.4V45.2L228.762 56.1C228.162 57.2333 227.428 58.0667 226.562 58.6C225.762 59.0667 224.728 59.3 223.462 59.3H219.462C218.195 59.3 217.128 59.0667 216.262 58.6C215.462 58.0667 214.762 57.2333 214.162 56.1L208.262 45.2V80.4C208.262 81.6667 207.962 82.6 207.362 83.2C206.828 83.7333 205.928 84 204.662 84ZM302.125 33L297.425 48.2H313.125L308.425 33C308.158 32.4 307.858 31.9667 307.525 31.7C307.258 31.4333 306.925 31.3 306.525 31.3H304.025C303.625 31.3 303.258 31.4333 302.925 31.7C302.658 31.9667 302.392 32.4 302.125 33ZM296.425 80.4C296.425 81.6667 296.125 82.6 295.525 83.2C294.992 83.7333 294.092 84 292.825 84H278.125C276.858 84 275.925 83.7333 275.325 83.2C274.792 82.6 274.525 81.6667 274.525 80.4V54C274.525 52 274.825 49.7 275.425 47.1C276.092 44.5 277.092 41.4667 278.425 38L287.125 15.3C287.525 14.1667 288.125 13.3333 288.925 12.8C289.792 12.2667 290.892 12 292.225 12H319.125C320.392 12 321.425 12.2667 322.225 12.8C323.092 13.3333 323.725 14.1667 324.125 15.3L332.825 38C334.158 41.4667 335.125 44.5 335.725 47.1C336.392 49.7 336.725 52 336.725 54V80.4C336.725 81.6667 336.425 82.6 335.825 83.2C335.292 83.7333 334.392 84 333.125 84H318.025C316.692 84 315.692 83.7333 315.025 83.2C314.425 82.6 314.125 81.6667 314.125 80.4V66.4H296.425V80.4ZM391.372 84H357.672C356.405 84 355.472 83.7333 354.872 83.2C354.339 82.6 354.072 81.6667 354.072 80.4V15.6C354.072 14.3333 354.339 13.4333 354.872 12.9C355.472 12.3 356.405 12 357.672 12H391.372C399.705 12 405.872 13.6667 409.872 17C413.939 20.3333 415.972 25.4667 415.972 32.4V63.6C415.972 70.5333 413.939 75.6667 409.872 79C405.872 82.3333 399.705 84 391.372 84ZM376.772 31.1V65.1H388.672C390.272 65.1 391.439 64.7 392.172 63.9C392.972 63.1 393.372 61.8667 393.372 60.2V35.9C393.372 34.2333 392.972 33.0333 392.172 32.3C391.439 31.5 390.272 31.1 388.672 31.1H376.772ZM452.781 84H437.281C436.015 84 435.081 83.7333 434.481 83.2C433.948 82.6 433.681 81.6667 433.681 80.4V15.6C433.681 14.3333 433.948 13.4333 434.481 12.9C435.081 12.3 436.015 12 437.281 12H452.781C454.048 12 454.948 12.3 455.481 12.9C456.081 13.4333 456.381 14.3333 456.381 15.6V37.3H473.081V15.6C473.081 14.3333 473.348 13.4333 473.881 12.9C474.481 12.3 475.415 12 476.681 12H492.181C493.448 12 494.348 12.3 494.881 12.9C495.481 13.4333 495.781 14.3333 495.781 15.6V80.4C495.781 81.6667 495.481 82.6 494.881 83.2C494.348 83.7333 493.448 84 492.181 84H476.681C475.415 84 474.481 83.7333 473.881 83.2C473.348 82.6 473.081 81.6667 473.081 80.4V58.2H456.381V80.4C456.381 81.6667 456.081 82.6 455.481 83.2C454.948 83.7333 454.048 84 452.781 84ZM540.66 33L535.96 48.2H551.66L546.96 33C546.693 32.4 546.393 31.9667 546.06 31.7C545.793 31.4333 545.46 31.3 545.06 31.3H542.56C542.16 31.3 541.793 31.4333 541.46 31.7C541.193 31.9667 540.927 32.4 540.66 33ZM534.96 80.4C534.96 81.6667 534.66 82.6 534.06 83.2C533.527 83.7333 532.627 84 531.36 84H516.66C515.393 84 514.46 83.7333 513.86 83.2C513.327 82.6 513.06 81.6667 513.06 80.4V54C513.06 52 513.36 49.7 513.96 47.1C514.627 44.5 515.627 41.4667 516.96 38L525.66 15.3C526.06 14.1667 526.66 13.3333 527.46 12.8C528.327 12.2667 529.427 12 530.76 12H557.66C558.927 12 559.96 12.2667 560.76 12.8C561.627 13.3333 562.26 14.1667 562.66 15.3L571.36 38C572.693 41.4667 573.66 44.5 574.26 47.1C574.927 49.7 575.26 52 575.26 54V80.4C575.26 81.6667 574.96 82.6 574.36 83.2C573.827 83.7333 572.927 84 571.66 84H556.56C555.227 84 554.227 83.7333 553.56 83.2C552.96 82.6 552.66 81.6667 552.66 80.4V66.4H534.96V80.4ZM611.207 84H596.207C594.94 84 594.007 83.7333 593.407 83.2C592.874 82.6 592.607 81.6667 592.607 80.4V15.6C592.607 14.3333 592.874 13.4333 593.407 12.9C594.007 12.3 594.94 12 596.207 12H606.607C607.874 12 608.94 12.2 609.807 12.6C610.74 13 611.64 13.7 612.507 14.7L631.907 36.9V15.6C631.907 14.3333 632.174 13.4333 632.707 12.9C633.307 12.3 634.24 12 635.507 12H650.507C651.774 12 652.674 12.3 653.207 12.9C653.807 13.4333 654.107 14.3333 654.107 15.6V80.4C654.107 81.6667 653.807 82.6 653.207 83.2C652.674 83.7333 651.774 84 650.507 84H635.507C634.24 84 633.307 83.7333 632.707 83.2C632.174 82.6 631.907 81.6667 631.907 80.4V68.1L614.807 47.4V80.4C614.807 81.6667 614.507 82.6 613.907 83.2C613.374 83.7333 612.474 84 611.207 84Z" fill="#0E2E2E"/>
<path d="M60.8351 32.625L51.7285 43.0806H64.913L6.25586 85.9999H60.4387C76.9244 85.9999 90.2887 74.0504 90.2887 59.3102C90.2885 44.6884 77.1378 32.815 60.8351 32.625Z" fill="#0E2E2E"/>
<path d="M60.8371 32.625L51.7305 43.0806H64.915C74.736 43.0806 90.2906 45.135 90.2906 59.3102C90.2905 44.6884 77.1397 32.815 60.8371 32.625Z" fill="#0E2E2E"/>
<path opacity="0.41" d="M55.3086 38.9773H64.65C70.9714 38.9773 79.6672 39.8294 85.0627 44.216C79.7517 37.3056 70.8969 32.7422 60.8413 32.625L55.3086 38.9773Z" fill="#0E2E2E"/>
<path d="M29.4534 64.3749L38.56 53.9192H25.3755L84.0327 11H29.85C13.3643 11 0 22.9494 0 37.6897C0 52.3115 13.1508 64.1848 29.4534 64.3749Z" fill="#0E2E2E"/>
<path d="M29.4535 64.3748L38.5601 53.9192H25.3757C15.5546 53.9192 0 51.8648 0 37.6896C0.000117124 52.3114 13.1509 64.1847 29.4535 64.3748Z" fill="#0E2E2E"/>
<path opacity="0.41" d="M34.9845 58.0226H25.6431C19.3217 58.0226 10.6259 57.1705 5.23047 52.7839C10.5414 59.6943 19.3962 64.2577 29.4519 64.3749L34.9845 58.0226Z" fill="#0E2E2E"/>
</svg>
