<svg width="137" height="25" viewBox="0 0 137 25" fill="none" xmlns="http://www.w3.org/2000/svg">
<g clip-path="url(#clip0_644_2319)">
<path d="M5.65685 5.90576H0V19.9407H5.65685C10.1507 19.9407 13.1473 17.2907 13.1473 12.9232C13.1473 8.55577 10.1309 5.90576 5.65685 5.90576ZM5.61728 17.6081H2.64045V8.2383H5.61728C8.55453 8.2383 10.4475 9.9381 10.4475 12.9232C10.4475 15.9083 8.55453 17.6081 5.61728 17.6081Z" fill="#16653A"/>
<path d="M29.0217 10.0968C29.0217 7.34982 27.2871 5.90576 24.2311 5.90576H16.4043V19.9407H19.0469V14.1689H23.5803L26.755 19.9407H29.5538L26.2626 13.8911C28.0368 13.3377 29.0217 11.9928 29.0217 10.0946V10.0968ZM24.0157 11.8562H19.0491V8.25814H24.0157C25.5326 8.25814 26.3021 8.81151 26.3021 10.0946C26.3021 11.3006 25.5326 11.854 24.0157 11.854V11.8562Z" fill="#16653A"/>
<path d="M37.7722 5.84619L31.4844 19.9406H34.1468L35.4286 17.0547H42.4661L43.7478 19.9406H46.5862L40.2785 5.84619H37.7744H37.7722ZM36.4311 14.7619L38.955 9.1091L41.4592 14.7619H36.4333H36.4311Z" fill="#16653A"/>
<path d="M49.4531 19.9407H52.0958V13.8315H59.5422V11.5188H52.0958V8.21846H61.3011V5.90576H49.4531V19.9407Z" fill="#16653A"/>
<path d="M63.3691 8.27798H68.9293V19.9407H71.5697V8.27798H77.1276V5.90576H63.3691V8.27798Z" fill="#16653A"/>
<path d="M97.7053 5.90572L94.4911 15.9877L91.0416 5.84619H88.6957L85.266 15.9281L82.0737 5.90572H79.1738L83.9249 20.0001H86.2136L89.7796 9.79916L93.328 20.0001H95.6937L100.306 5.90572H97.7053Z" fill="#16653A"/>
<path d="M116.751 11.519C115.806 11.4198 115.155 11.3404 114.286 11.261C112.829 11.0825 112 10.5291 112 9.58107C112 8.5537 113.005 7.90112 114.917 7.90112C117.204 7.90112 118.268 8.82928 118.664 9.54139H121.363C120.93 7.76222 119.314 5.64795 114.917 5.64795C111.587 5.64795 109.32 7.14933 109.32 9.66044C109.32 12.1716 111.29 13.5142 114.091 13.792C115.016 13.8912 115.647 13.9507 116.575 14.0499C118.013 14.2285 119 14.6628 119 16.0055C119 17.1321 117.877 17.9434 115.748 17.9434C113.185 17.9434 112.061 16.7573 111.688 15.8688H108.869C109.421 17.8838 111.175 20.1965 115.748 20.1965C119.71 20.1965 121.702 18.3601 121.702 15.8291C121.702 12.8638 119.554 11.7968 116.755 11.519H116.751Z" fill="#16653A"/>
<path d="M127.806 17.5883V13.7147H135.136V11.402H127.806V8.19861H136.788V5.90576H125.166V19.9407H137.001V17.5883H127.806Z" fill="#16653A"/>
<path d="M109.281 2.49963V0.5H107.287H105.293V2.49963H107.287H109.281Z" fill="#16653A"/>
<path d="M105.293 18.501V16.4991V14.4995V12.4999V10.5002V8.50061V6.50098V4.49914V2.49951H103.297V4.49914V6.50098V8.50061V10.5002V12.4999V14.4995V16.4991V18.501V20.5006V22.5002H105.293V20.5006V18.501Z" fill="#16653A"/>
<path d="M101.303 0.5H99.3086V2.49963H101.303H103.297V0.5H101.303Z" fill="#16653A"/>
<path d="M105.293 22.5005V24.5001H107.287H109.281V22.5005H107.287H105.293Z" fill="#16653A"/>
<path d="M99.3086 22.5005V24.5001H101.303H103.297V22.5005H101.303H99.3086Z" fill="#16653A"/>
</g>
<defs>
<clipPath id="clip0_644_2319">
<rect width="137" height="24" fill="white" transform="translate(0 0.5)"/>
</clipPath>
</defs>
</svg>
