<svg width="145" height="44" viewBox="0 0 145 44" fill="none" xmlns="http://www.w3.org/2000/svg">
<path d="M86.3567 26.6108V11.9508H92.9317V7.52149H86.3567V0.404297H81.5815V7.53315H75.1018C71.6676 7.53315 70.5889 8.81977 68.6221 11.5193L64.8555 16.7105L58.3078 7.54676H52.5627L61.8372 20.2555L56.8249 27.0248C55.8278 28.3542 54.0689 29.2404 53.0583 29.2404H51.0642C50.11 29.2404 49.7621 29.0324 49.7621 27.8974V16.7805C49.7621 10.7303 45.9139 7.26883 39.199 7.26883C32.8592 7.26883 28.7059 10.3415 28.0956 15.4919L28.0548 15.8787H32.8165L32.8728 15.6027C33.3432 13.1383 35.6968 11.601 39.0047 11.601C42.7557 11.601 44.9849 13.4415 44.9849 16.5433V17.9407H37.856C31.044 17.9407 27.293 20.8755 27.293 26.2046C27.293 30.9254 31.1003 33.9709 37.0106 33.9709C40.4992 33.9709 43.2688 32.7387 45.2609 30.3171C45.6204 32.6008 47.185 33.6678 50.1197 33.6678H54.0106C57.4021 33.6678 58.3155 32.422 60.3096 29.6816L64.6573 23.7013L71.9124 33.6697H77.6575L67.6756 20.2691L72.272 14.0109C73.2127 12.7651 74.958 11.9897 76.0386 11.9897H81.5757V26.6924C81.5757 31.5785 83.6669 33.6697 88.5529 33.6697H93.3282V29.2404H88.9397C86.9456 29.2404 86.3509 28.6321 86.3509 26.6516V26.6108H86.3567ZM44.9927 22.028V22.9278C44.9927 27.1356 42.0579 29.7535 37.3099 29.7535C34.1536 29.7535 32.1187 28.2453 32.1187 25.9189C32.1187 23.3301 33.9184 22.028 37.4479 22.028H44.9927Z" fill="#2A49FF"/>
<path d="M106.126 7.22852C98.4981 7.22852 93.1689 12.7248 93.1689 20.5883C93.1689 28.4518 98.4981 33.9345 106.126 33.9345C113.755 33.9345 119.084 28.4382 119.084 20.5883C119.084 12.7384 113.755 7.22852 106.126 7.22852ZM114.198 20.5883C114.198 25.9039 110.874 29.6141 106.126 29.6141C101.378 29.6141 98.055 25.9039 98.055 20.5883C98.055 15.2728 101.378 11.5626 106.126 11.5626C110.874 11.5626 114.198 15.2728 114.198 20.5883Z" fill="#2A49FF"/>
<path d="M134.175 7.22852C130.008 7.22852 127.487 8.89023 126.02 10.5092L125.55 7.53365H121.369V33.643H126.144V20.5883C126.144 14.9948 128.885 11.6598 133.468 11.6598C137.745 11.6598 140.002 14.3321 140.002 19.3853V33.6313H144.777V19.1365C144.777 8.78139 138.132 7.23046 134.159 7.23046H134.173L134.175 7.22852Z" fill="#2A49FF"/>
<path d="M13.1518 7.22851C9.69042 7.22851 6.78291 8.55788 4.66641 11.0903L4.18247 7.51809H0V43.5958H4.77524V30.4575C6.62937 32.7004 9.55049 33.919 13.1499 33.919C20.5431 33.919 25.707 28.4227 25.707 20.5728C25.707 12.7229 20.7782 7.22656 13.1499 7.22656L13.1518 7.22851ZM20.8346 20.5747C20.8346 25.9738 17.5947 29.6004 12.7631 29.6004C7.93153 29.6004 4.73443 25.9311 4.73443 20.4775C4.73443 15.024 8.02871 11.5626 12.7631 11.5626C17.4976 11.5626 20.8346 15.1892 20.8346 20.5883V20.5747Z" fill="#2A49FF"/>
<path d="M50.1279 33.6718H54.0188C57.4103 33.6718 58.3237 32.426 60.3178 29.6856L64.6655 23.7054L67.6838 20.2731L64.8598 16.7145L58.3121 7.55078H52.567L61.8415 20.2595L56.8292 27.0288C55.8321 28.3582 54.0732 29.2444 53.0626 29.2444H51.0686C50.6352 29.2444 50.3281 29.2017 50.1201 29.0501L50.1279 33.6757V33.6718Z" fill="url(#paint0_linear_9530_779)"/>
<defs>
<linearGradient id="paint0_linear_9530_779" x1="67.304" y1="20.5165" x2="52.7787" y2="20.4513" gradientUnits="userSpaceOnUse">
<stop stop-color="#FEF9F0"/>
<stop offset="1" stop-color="#2A49FF"/>
</linearGradient>
</defs>
</svg>
